# Blender 4.2.2 LTS
# www.blender.org
o chip.004
v -1.392145 -0.000000 -4.196244
v 1.392145 -0.000000 -4.196244
v 2.937982 -0.000000 -3.303756
v 4.330127 -0.000000 -0.892489
v 4.330127 -0.000000 0.892489
v 2.937982 -0.000000 3.303756
v 1.392145 -0.000000 4.196245
v -1.392145 -0.000000 4.196245
v -2.937982 -0.000000 3.303756
v -4.330127 -0.000000 0.892489
v -4.330127 -0.000000 -0.892489
v -2.937982 -0.000000 -3.303756
v -1.213768 -0.000000 -3.658576
v 1.213768 -0.000000 -3.658576
v 2.561536 -0.000000 -2.880443
v 3.775304 -0.000000 -0.778134
v 3.775304 -0.000000 0.778134
v 2.561536 -0.000000 2.880443
v 1.213768 -0.000000 3.658576
v -1.213768 -0.000000 3.658576
v -2.561536 -0.000000 2.880443
v -3.775304 -0.000000 0.778134
v -3.775304 -0.000000 -0.778134
v -2.561536 -0.000000 -2.880443
v -0.873851 -0.000000 -2.633987
v 0.873851 -0.000000 -2.633987
v 1.844174 -0.000000 -2.073771
v 2.718025 -0.000000 -0.560216
v 2.718025 -0.000000 0.560216
v 1.844174 -0.000000 2.073771
v 0.873851 -0.000000 2.633987
v -0.873851 -0.000000 2.633987
v -1.844174 -0.000000 2.073771
v -2.718025 -0.000000 0.560216
v -2.718025 -0.000000 -0.560216
v -1.844174 -0.000000 -2.073771
v -0.588844 -0.000000 -1.774909
v 0.588843 -0.000000 -1.774909
v 1.242695 -0.000000 -1.397408
v 1.831538 -0.000000 -0.377501
v 1.831538 -0.000000 0.377501
v 1.242695 -0.000000 1.397408
v 0.588843 -0.000000 1.774909
v -0.588844 -0.000000 1.774909
v -1.242695 -0.000000 1.397408
v -1.831538 -0.000000 0.377501
v -1.831538 -0.000000 -0.377501
v -1.242695 -0.000000 -1.397408
v -0.345018 -0.000000 -1.039962
v 0.345018 -0.000000 -1.039962
v 0.728125 -0.000000 -0.818775
v 1.073143 -0.000000 -0.221187
v 1.073143 -0.000000 0.221187
v 0.728125 -0.000000 0.818775
v 0.345018 -0.000000 1.039962
v -0.345018 -0.000000 1.039962
v -0.728125 -0.000000 0.818775
v -1.073143 -0.000000 0.221187
v -1.073143 -0.000000 -0.221187
v -0.728125 -0.000000 -0.818775
v -1.392145 -0.352810 -4.196244
v 1.392145 -0.352810 -4.196244
v 2.937982 -0.352810 -3.303756
v 4.330127 -0.352810 -0.892489
v 4.330127 -0.352810 0.892489
v 2.937982 -0.352810 3.303756
v 1.392145 -0.352810 4.196245
v -1.392145 -0.352810 4.196245
v -2.937982 -0.352810 3.303756
v -4.330127 -0.352810 0.892489
v -4.330127 -0.352810 -0.892489
v -2.937982 -0.352810 -3.303756
v 1.213768 -0.352810 3.658576
v -1.213768 -0.352810 3.658576
v 3.775304 -0.352810 0.778134
v 2.561536 -0.352810 2.880443
v 2.561536 -0.352810 -2.880443
v 3.775304 -0.352810 -0.778134
v -1.213768 -0.352810 -3.658576
v 1.213768 -0.352810 -3.658576
v -2.561536 -0.352810 -2.880443
v -3.775304 -0.352810 -0.778134
v -2.561536 -0.352810 2.880443
v -3.775304 -0.352810 0.778134
v 0.873851 -0.352810 2.633987
v -0.873851 -0.352810 2.633987
v 2.718025 -0.352810 0.560216
v 1.844174 -0.352810 2.073771
v 1.844174 -0.352810 -2.073771
v 2.718025 -0.352810 -0.560216
v -0.873851 -0.352810 -2.633987
v 0.873851 -0.352810 -2.633987
v -1.844174 -0.352810 -2.073771
v -2.718025 -0.352810 -0.560216
v -1.844174 -0.352810 2.073771
v -2.718025 -0.352810 0.560216
v 0.588843 -0.352810 1.774909
v -0.588844 -0.352810 1.774909
v 1.831538 -0.352810 0.377501
v 1.242695 -0.352810 1.397408
v 1.242695 -0.352810 -1.397408
v 1.831538 -0.352810 -0.377501
v -0.588844 -0.352810 -1.774909
v 0.588843 -0.352810 -1.774909
v -1.242695 -0.352810 -1.397408
v -1.831538 -0.352810 -0.377501
v -1.242695 -0.352810 1.397408
v -1.831538 -0.352810 0.377501
v 0.345018 -0.352810 1.039962
v -0.345018 -0.352810 1.039962
v 1.073143 -0.352810 0.221187
v 0.728125 -0.352810 0.818775
v 0.728125 -0.352810 -0.818775
v 1.073143 -0.352810 -0.221187
v -0.345018 -0.352810 -1.039962
v 0.345018 -0.352810 -1.039962
v -0.728125 -0.352810 -0.818775
v -1.073143 -0.352810 -0.221187
v -0.728125 -0.352810 0.818775
v -1.073143 -0.352810 0.221187
vn -0.0000 1.0000 -0.0000
vn -0.0000 -0.0000 -1.0000
vn -0.9491 -0.0000 -0.3149
vn -0.0000 -1.0000 -0.0000
vn -0.0000 -0.0000 1.0000
vn -0.8660 -0.0000 0.5000
vn 0.5000 -0.0000 0.8660
vn 0.8660 -0.0000 -0.5000
vn 1.0000 -0.0000 -0.0000
vn -0.8660 -0.0000 -0.5000
vn 0.8660 -0.0000 0.5000
vn -1.0000 -0.0000 -0.0000
vn 0.5000 -0.0000 -0.8660
vn -0.5000 -0.0000 0.8660
vn -0.5000 -0.0000 -0.8660
vn 0.9491 -0.0000 -0.3149
vt 0.013105 0.185664
vt 0.013105 0.120567
vt 0.033340 0.124737
vt 0.033340 0.181494
vt 0.063877 0.273603
vt 0.077606 0.258165
vt 0.120253 0.306152
vt 0.126758 0.286543
vt 0.063877 0.032628
vt 0.077606 0.048066
vt 0.221795 0.000079
vt 0.278172 0.032628
vt 0.264443 0.048066
vt 0.215290 0.019688
vt 0.120253 0.000080
vt 0.126758 0.019688
vt 0.328943 0.185664
vt 0.278172 0.273603
vt 0.264443 0.258165
vt 0.308709 0.181494
vt 0.328943 0.120567
vt 0.308709 0.124737
vt 0.221795 0.306152
vt 0.215290 0.286543
vt 0.139155 0.057055
vt 0.103768 0.077486
vt 0.071898 0.132685
vt 0.270150 0.173546
vt 0.270150 0.132685
vt 0.238281 0.077486
vt 0.056055 0.612542
vt 0.056055 0.625409
vt 0.013105 0.625409
vt 0.013105 0.612542
vt 0.202893 0.249176
vt 0.238281 0.228745
vt 0.139155 0.249176
vt 0.202893 0.057055
vt 0.103768 0.228745
vt 0.071898 0.173547
vt 0.149549 0.088385
vt 0.125703 0.102152
vt 0.104228 0.139348
vt 0.237820 0.166883
vt 0.237820 0.139348
vt 0.216345 0.102152
vt 0.128434 0.625409
vt 0.089065 0.625409
vt 0.089065 0.612542
vt 0.128434 0.612542
vt 0.192499 0.217846
vt 0.216345 0.204079
vt 0.149549 0.217846
vt 0.192499 0.088385
vt 0.125703 0.204079
vt 0.104228 0.166883
vt 0.131887 0.145049
vt 0.131887 0.161182
vt 0.158441 0.115188
vt 0.144470 0.123255
vt 0.210161 0.161182
vt 0.210161 0.145049
vt 0.197579 0.123255
vt 0.183607 0.115188
vt 0.183607 0.191043
vt 0.197579 0.182976
vt 0.158441 0.191043
vt 0.144470 0.182976
vt 0.328943 0.491896
vt 0.308709 0.487725
vt 0.308709 0.430968
vt 0.328943 0.426798
vt 0.278172 0.579834
vt 0.264443 0.564396
vt 0.221795 0.612383
vt 0.215290 0.592774
vt 0.264443 0.354298
vt 0.278172 0.338859
vt 0.120253 0.306311
vt 0.126758 0.325919
vt 0.077606 0.354298
vt 0.063877 0.338859
vt 0.215290 0.325919
vt 0.221795 0.306311
vt 0.013105 0.491896
vt 0.033340 0.487725
vt 0.077606 0.564396
vt 0.063877 0.579834
vt 0.013105 0.426798
vt 0.033340 0.430968
vt 0.120253 0.612383
vt 0.126758 0.592774
vt 0.238281 0.383717
vt 0.202893 0.363286
vt 0.270150 0.438916
vt 0.071898 0.438916
vt 0.071898 0.479778
vt 0.103768 0.383717
vt 0.103768 0.534977
vt 0.139155 0.555408
vt 0.202893 0.555408
vt 0.139155 0.363286
vt 0.238281 0.534977
vt 0.270150 0.479778
vt 0.216345 0.408384
vt 0.192499 0.394616
vt 0.237820 0.445579
vt 0.104228 0.445579
vt 0.104228 0.473114
vt 0.125703 0.408384
vt 0.216966 0.612542
vt 0.216966 0.625409
vt 0.125703 0.510310
vt 0.149549 0.524077
vt 0.192499 0.524077
vt 0.149549 0.394616
vt 0.216345 0.510310
vt 0.237820 0.473114
vt 0.210161 0.467413
vt 0.210161 0.451280
vt 0.197579 0.429486
vt 0.183607 0.421419
vt 0.131887 0.451280
vt 0.131887 0.467413
vt 0.144470 0.429486
vt 0.158441 0.421419
vt 0.144470 0.489207
vt 0.158441 0.497274
vt 0.183607 0.497274
vt 0.197579 0.489207
vt 0.012946 0.268262
vt 0.000080 0.268262
vt 0.000080 0.166720
vt 0.012946 0.166720
vt 0.012946 0.999921
vt 0.000079 0.999921
vt 0.000079 0.934823
vt 0.012946 0.934823
vt 0.012946 0.768183
vt 0.000080 0.768183
vt 0.000080 0.666640
vt 0.012946 0.666640
vt 0.012946 0.833280
vt 0.000080 0.833280
vt 0.012946 0.434902
vt 0.000080 0.434902
vt 0.000080 0.333360
vt 0.012946 0.333360
vt 0.000080 0.601542
vt 0.012946 0.601542
vt 0.012946 0.101622
vt 0.000080 0.101622
vt 0.000080 0.000079
vt 0.012946 0.000079
vt 0.000080 0.500000
vt 0.012946 0.500000
vt 0.289345 0.612542
vt 0.289345 0.625409
vt 0.256335 0.625409
vt 0.256335 0.612542
s 0
f 5/1/1 4/2/1 16/3/1 17/4/1
f 6/5/1 5/1/1 17/4/1 18/6/1
f 7/7/1 6/5/1 18/6/1 19/8/1
f 4/2/1 3/9/1 15/10/1 16/3/1
f 1/11/1 12/12/1 24/13/1 13/14/1
f 3/9/1 2/15/1 14/16/1 15/10/1
f 10/17/1 9/18/1 21/19/1 22/20/1
f 11/21/1 10/17/1 22/20/1 23/22/1
f 2/15/1 1/11/1 13/14/1 14/16/1
f 8/23/1 7/7/1 19/8/1 20/24/1
f 12/12/1 11/21/1 23/22/1 24/13/1
f 9/18/1 8/23/1 20/24/1 21/19/1
f 15/10/1 14/16/1 26/25/1 27/26/1
f 16/3/1 15/10/1 27/26/1 28/27/1
f 23/22/1 22/20/1 34/28/1 35/29/1
f 24/13/1 23/22/1 35/29/1 36/30/1
f 38/31/2 104/32/2 103/33/2 37/34/2
f 21/19/1 20/24/1 32/35/1 33/36/1
f 20/24/1 19/8/1 31/37/1 32/35/1
f 22/20/1 21/19/1 33/36/1 34/28/1
f 13/14/1 24/13/1 36/30/1 25/38/1
f 19/8/1 18/6/1 30/39/1 31/37/1
f 18/6/1 17/4/1 29/40/1 30/39/1
f 17/4/1 16/3/1 28/27/1 29/40/1
f 27/26/1 26/25/1 38/41/1 39/42/1
f 28/27/1 27/26/1 39/42/1 40/43/1
f 35/29/1 34/28/1 46/44/1 47/45/1
f 36/30/1 35/29/1 47/45/1 48/46/1
f 80/47/3 92/48/3 26/49/3 14/50/3
f 33/36/1 32/35/1 44/51/1 45/52/1
f 32/35/1 31/37/1 43/53/1 44/51/1
f 34/28/1 33/36/1 45/52/1 46/44/1
f 25/38/1 36/30/1 48/46/1 37/54/1
f 31/37/1 30/39/1 42/55/1 43/53/1
f 30/39/1 29/40/1 41/56/1 42/55/1
f 29/40/1 28/27/1 40/43/1 41/56/1
f 41/56/1 40/43/1 52/57/1 53/58/1
f 39/42/1 38/41/1 50/59/1 51/60/1
f 40/43/1 39/42/1 51/60/1 52/57/1
f 47/45/1 46/44/1 58/61/1 59/62/1
f 48/46/1 47/45/1 59/62/1 60/63/1
f 38/41/1 37/54/1 49/64/1 50/59/1
f 45/52/1 44/51/1 56/65/1 57/66/1
f 44/51/1 43/53/1 55/67/1 56/65/1
f 46/44/1 45/52/1 57/66/1 58/61/1
f 37/54/1 48/46/1 60/63/1 49/64/1
f 43/53/1 42/55/1 54/68/1 55/67/1
f 42/55/1 41/56/1 53/58/1 54/68/1
f 49/64/1 60/63/1 55/67/1 54/68/1
f 53/58/1 50/59/1 49/64/1 54/68/1
f 51/60/1 50/59/1 53/58/1 52/57/1
f 55/67/1 60/63/1 59/62/1 56/65/1
f 58/61/1 57/66/1 56/65/1 59/62/1
f 65/69/4 75/70/4 78/71/4 64/72/4
f 66/73/4 76/74/4 75/70/4 65/69/4
f 67/75/4 73/76/4 76/74/4 66/73/4
f 64/72/4 78/71/4 77/77/4 63/78/4
f 61/79/4 79/80/4 81/81/4 72/82/4
f 63/78/4 77/77/4 80/83/4 62/84/4
f 70/85/4 84/86/4 83/87/4 69/88/4
f 71/89/4 82/90/4 84/86/4 70/85/4
f 62/84/4 80/83/4 79/80/4 61/79/4
f 68/91/4 74/92/4 73/76/4 67/75/4
f 72/82/4 81/81/4 82/90/4 71/89/4
f 69/88/4 83/87/4 74/92/4 68/91/4
f 77/77/4 89/93/4 92/94/4 80/83/4
f 78/71/4 90/95/4 89/93/4 77/77/4
f 82/90/4 94/96/4 96/97/4 84/86/4
f 81/81/4 93/98/4 94/96/4 82/90/4
f 38/31/3 26/49/3 92/48/3 104/32/3
f 83/87/4 95/99/4 86/100/4 74/92/4
f 74/92/4 86/100/4 85/101/4 73/76/4
f 84/86/4 96/97/4 95/99/4 83/87/4
f 79/80/4 91/102/4 93/98/4 81/81/4
f 73/76/4 85/101/4 88/103/4 76/74/4
f 76/74/4 88/103/4 87/104/4 75/70/4
f 75/70/4 87/104/4 90/95/4 78/71/4
f 89/93/4 101/105/4 104/106/4 92/94/4
f 90/95/4 102/107/4 101/105/4 89/93/4
f 94/96/4 106/108/4 108/109/4 96/97/4
f 93/98/4 105/110/4 106/108/4 94/96/4
f 14/50/5 13/111/5 79/112/5 80/47/5
f 95/99/4 107/113/4 98/114/4 86/100/4
f 86/100/4 98/114/4 97/115/4 85/101/4
f 96/97/4 108/109/4 107/113/4 95/99/4
f 91/102/4 103/116/4 105/110/4 93/98/4
f 85/101/4 97/115/4 100/117/4 88/103/4
f 88/103/4 100/117/4 99/118/4 87/104/4
f 87/104/4 99/118/4 102/107/4 90/95/4
f 99/118/4 111/119/4 114/120/4 102/107/4
f 101/105/4 113/121/4 116/122/4 104/106/4
f 102/107/4 114/120/4 113/121/4 101/105/4
f 106/108/4 118/123/4 120/124/4 108/109/4
f 105/110/4 117/125/4 118/123/4 106/108/4
f 104/106/4 116/122/4 115/126/4 103/116/4
f 107/113/4 119/127/4 110/128/4 98/114/4
f 98/114/4 110/128/4 109/129/4 97/115/4
f 108/109/4 120/124/4 119/127/4 107/113/4
f 103/116/4 115/126/4 117/125/4 105/110/4
f 97/115/4 109/129/4 112/130/4 100/117/4
f 100/117/4 112/130/4 111/119/4 99/118/4
f 115/126/4 112/130/4 109/129/4 117/125/4
f 111/119/4 112/130/4 115/126/4 116/122/4
f 113/121/4 114/120/4 111/119/4 116/122/4
f 109/129/4 110/128/4 118/123/4 117/125/4
f 120/124/4 118/123/4 110/128/4 119/127/4
f 10/131/6 70/132/6 69/133/6 9/134/6
f 7/135/7 67/136/7 66/137/7 6/138/7
f 4/139/8 64/140/8 63/141/8 3/142/8
f 5/143/9 65/144/9 64/140/9 4/139/9
f 12/145/10 72/146/10 71/147/10 11/148/10
f 6/138/11 66/137/11 65/144/11 5/143/11
f 11/148/12 71/147/12 70/132/12 10/131/12
f 3/142/13 63/141/13 62/149/13 2/150/13
f 8/151/5 68/152/5 67/153/5 7/154/5
f 9/134/14 69/133/14 68/152/14 8/151/14
f 2/150/2 62/149/2 61/155/2 1/156/2
f 1/156/15 61/155/15 72/146/15 12/145/15
f 37/157/16 103/158/16 91/159/16 25/160/16
f 25/160/16 91/159/16 79/112/16 13/111/16
