# Blender 4.2.2 LTS
# www.blender.org
o chip.003
v -1.392145 -0.000000 -4.196244
v 1.392145 -0.000000 -4.196244
v 2.937982 -0.000000 -3.303756
v 4.330127 -0.000000 -0.892489
v 4.330127 -0.000000 0.892489
v 2.937982 -0.000000 3.303756
v 1.392145 -0.000000 4.196245
v -1.392145 -0.000000 4.196245
v -2.937982 -0.000000 3.303756
v -4.330127 -0.000000 0.892489
v -4.330127 -0.000000 -0.892489
v -2.937982 -0.000000 -3.303756
v -1.213768 -0.000000 -3.658576
v 1.213768 -0.000000 -3.658576
v 2.561536 -0.000000 -2.880443
v 3.775304 -0.000000 -0.778134
v 3.775304 -0.000000 0.778134
v 2.561536 -0.000000 2.880443
v 1.213768 -0.000000 3.658576
v -1.213768 -0.000000 3.658576
v -2.561536 -0.000000 2.880443
v -3.775304 -0.000000 0.778134
v -3.775304 -0.000000 -0.778134
v -2.561536 -0.000000 -2.880443
v -0.873851 -0.000000 -2.633987
v 0.873851 -0.000000 -2.633987
v 1.844174 -0.000000 -2.073771
v 2.718025 -0.000000 -0.560216
v 2.718025 -0.000000 0.560216
v 1.844174 -0.000000 2.073771
v 0.873851 -0.000000 2.633987
v -0.873851 -0.000000 2.633987
v -1.844174 -0.000000 2.073771
v -2.718025 -0.000000 0.560216
v -2.718025 -0.000000 -0.560216
v -1.844174 -0.000000 -2.073771
v -0.588844 -0.000000 -1.774909
v 0.588843 -0.000000 -1.774909
v 1.242695 -0.000000 -1.397408
v 1.831538 -0.000000 -0.377501
v 1.831538 -0.000000 0.377501
v 1.242695 -0.000000 1.397408
v 0.588843 -0.000000 1.774909
v -0.588844 -0.000000 1.774909
v -1.242695 -0.000000 1.397408
v -1.831538 -0.000000 0.377501
v -1.831538 -0.000000 -0.377501
v -1.242695 -0.000000 -1.397408
v -0.345018 -0.000000 -1.039962
v 0.345018 -0.000000 -1.039962
v 0.728125 -0.000000 -0.818775
v 1.073143 -0.000000 -0.221187
v 1.073143 -0.000000 0.221187
v 0.728125 -0.000000 0.818775
v 0.345018 -0.000000 1.039962
v -0.345018 -0.000000 1.039962
v -0.728125 -0.000000 0.818775
v -1.073143 -0.000000 0.221187
v -1.073143 -0.000000 -0.221187
v -0.728125 -0.000000 -0.818775
v -1.392145 -0.352810 -4.196244
v 1.392145 -0.352810 -4.196244
v 2.937982 -0.352810 -3.303756
v 4.330127 -0.352810 -0.892489
v 4.330127 -0.352810 0.892489
v 2.937982 -0.352810 3.303756
v 1.392145 -0.352810 4.196245
v -1.392145 -0.352810 4.196245
v -2.937982 -0.352810 3.303756
v -4.330127 -0.352810 0.892489
v -4.330127 -0.352810 -0.892489
v -2.937982 -0.352810 -3.303756
v 1.213768 -0.352810 3.658576
v -1.213768 -0.352810 3.658576
v 3.775304 -0.352810 0.778134
v 2.561536 -0.352810 2.880443
v 2.561536 -0.352810 -2.880443
v 3.775304 -0.352810 -0.778134
v -1.213768 -0.352810 -3.658576
v 1.213768 -0.352810 -3.658576
v -2.561536 -0.352810 -2.880443
v -3.775304 -0.352810 -0.778134
v -2.561536 -0.352810 2.880443
v -3.775304 -0.352810 0.778134
v 0.873851 -0.352810 2.633987
v -0.873851 -0.352810 2.633987
v 2.718025 -0.352810 0.560216
v 1.844174 -0.352810 2.073771
v 1.844174 -0.352810 -2.073771
v 2.718025 -0.352810 -0.560216
v -0.873851 -0.352810 -2.633987
v 0.873851 -0.352810 -2.633987
v -1.844174 -0.352810 -2.073771
v -2.718025 -0.352810 -0.560216
v -1.844174 -0.352810 2.073771
v -2.718025 -0.352810 0.560216
v 0.588843 -0.352810 1.774909
v -0.588844 -0.352810 1.774909
v 1.831538 -0.352810 0.377501
v 1.242695 -0.352810 1.397408
v 1.242695 -0.352810 -1.397408
v 1.831538 -0.352810 -0.377501
v -0.588844 -0.352810 -1.774909
v 0.588843 -0.352810 -1.774909
v -1.242695 -0.352810 -1.397408
v -1.831538 -0.352810 -0.377501
v -1.242695 -0.352810 1.397408
v -1.831538 -0.352810 0.377501
v 0.345018 -0.352810 1.039962
v -0.345018 -0.352810 1.039962
v 1.073143 -0.352810 0.221187
v 0.728125 -0.352810 0.818775
v 0.728125 -0.352810 -0.818775
v 1.073143 -0.352810 -0.221187
v -0.345018 -0.352810 -1.039962
v 0.345018 -0.352810 -1.039962
v -0.728125 -0.352810 -0.818775
v -1.073143 -0.352810 -0.221187
v -0.728125 -0.352810 0.818775
v -1.073143 -0.352810 0.221187
vn -0.0000 1.0000 -0.0000
vn -0.7473 -0.0000 -0.6645
vn -0.0000 -1.0000 -0.0000
vn -0.5000 -0.0000 0.8660
vn -0.8660 -0.0000 0.5000
vn 0.5000 -0.0000 0.8660
vn 0.8660 -0.0000 -0.5000
vn 1.0000 -0.0000 -0.0000
vn -0.8660 -0.0000 -0.5000
vn 0.8660 -0.0000 0.5000
vn -1.0000 -0.0000 -0.0000
vn 0.5000 -0.0000 -0.8660
vn -0.0000 -0.0000 1.0000
vn -0.0000 -0.0000 -1.0000
vn -0.5000 -0.0000 -0.8660
vn 0.9491 -0.0000 0.3149
vt 0.328940 0.426795
vt 0.328940 0.491893
vt 0.308706 0.487722
vt 0.308706 0.430966
vt 0.278169 0.338857
vt 0.264440 0.354295
vt 0.221792 0.306308
vt 0.215287 0.325916
vt 0.278169 0.579832
vt 0.264440 0.564393
vt 0.120250 0.612381
vt 0.063873 0.579832
vt 0.077602 0.564393
vt 0.126755 0.592772
vt 0.221792 0.612380
vt 0.215287 0.592772
vt 0.013102 0.426795
vt 0.063873 0.338857
vt 0.077602 0.354295
vt 0.033336 0.430966
vt 0.013102 0.491893
vt 0.033336 0.487723
vt 0.120250 0.306308
vt 0.126755 0.325916
vt 0.093333 0.612537
vt 0.093333 0.625404
vt 0.053964 0.625404
vt 0.053964 0.612537
vt 0.238278 0.534974
vt 0.270147 0.479775
vt 0.071895 0.438913
vt 0.071895 0.479775
vt 0.103764 0.534974
vt 0.139152 0.555405
vt 0.202890 0.555405
vt 0.139152 0.363283
vt 0.103764 0.383714
vt 0.202890 0.363283
vt 0.238278 0.383714
vt 0.270147 0.438913
vt 0.192496 0.524075
vt 0.216342 0.510307
vt 0.237817 0.473111
vt 0.104225 0.445577
vt 0.104225 0.473112
vt 0.125700 0.510307
vt 0.149546 0.524075
vt 0.149546 0.394613
vt 0.125700 0.408381
vt 0.192496 0.394613
vt 0.216342 0.408381
vt 0.237817 0.445577
vt 0.210158 0.467411
vt 0.210158 0.451277
vt 0.183604 0.497271
vt 0.197576 0.489205
vt 0.131884 0.451277
vt 0.131884 0.467411
vt 0.144466 0.489205
vt 0.158438 0.497271
vt 0.158438 0.421417
vt 0.144466 0.429483
vt 0.183604 0.421417
vt 0.197576 0.429483
vt 0.278169 0.032627
vt 0.264440 0.048065
vt 0.215287 0.019687
vt 0.221792 0.000078
vt 0.328940 0.120566
vt 0.308706 0.124736
vt 0.328940 0.185664
vt 0.308706 0.181493
vt 0.126755 0.019687
vt 0.120250 0.000078
vt 0.013102 0.120566
vt 0.033336 0.124736
vt 0.033336 0.181493
vt 0.013102 0.185664
vt 0.077602 0.048065
vt 0.063873 0.032627
vt 0.120250 0.306151
vt 0.126755 0.286542
vt 0.215287 0.286542
vt 0.221792 0.306151
vt 0.063873 0.273602
vt 0.077602 0.258164
vt 0.278169 0.273602
vt 0.264440 0.258164
vt 0.150090 0.612537
vt 0.150090 0.625404
vt 0.202890 0.057054
vt 0.139152 0.057054
vt 0.103764 0.228745
vt 0.139152 0.249176
vt 0.071895 0.173546
vt 0.103764 0.077485
vt 0.071895 0.132684
vt 0.202890 0.249176
vt 0.238278 0.228745
vt 0.270147 0.173546
vt 0.270147 0.132684
vt 0.238278 0.077485
vt 0.149546 0.088384
vt 0.125700 0.102151
vt 0.192496 0.088384
vt 0.125700 0.204078
vt 0.149546 0.217845
vt 0.104225 0.166882
vt 0.104225 0.139347
vt 0.192496 0.217845
vt 0.216342 0.204078
vt 0.237817 0.166882
vt 0.237817 0.139347
vt 0.216342 0.102151
vt 0.197576 0.123254
vt 0.183604 0.115187
vt 0.158438 0.115187
vt 0.144466 0.123254
vt 0.144466 0.182975
vt 0.158438 0.191042
vt 0.131884 0.161181
vt 0.131884 0.145048
vt 0.183604 0.191042
vt 0.197576 0.182975
vt 0.210158 0.161181
vt 0.210158 0.145048
vt 0.012945 0.268262
vt 0.000078 0.268262
vt 0.000078 0.166719
vt 0.012945 0.166719
vt 0.012945 0.999922
vt 0.000078 0.999922
vt 0.000078 0.934824
vt 0.012945 0.934824
vt 0.012945 0.768183
vt 0.000078 0.768183
vt 0.000078 0.666641
vt 0.012945 0.666641
vt 0.012945 0.833281
vt 0.000078 0.833281
vt 0.012945 0.434902
vt 0.000078 0.434902
vt 0.000078 0.333359
vt 0.012945 0.333359
vt 0.000078 0.601543
vt 0.012945 0.601543
vt 0.012945 0.101621
vt 0.000078 0.101621
vt 0.000078 0.000078
vt 0.012945 0.000078
vt 0.000078 0.500000
vt 0.012945 0.500000
vt 0.013102 0.625404
vt 0.013102 0.612537
vt 0.189459 0.612537
vt 0.189459 0.625404
s 0
f 5/1/1 4/2/1 16/3/1 17/4/1
f 6/5/1 5/1/1 17/4/1 18/6/1
f 7/7/1 6/5/1 18/6/1 19/8/1
f 4/2/1 3/9/1 15/10/1 16/3/1
f 1/11/1 12/12/1 24/13/1 13/14/1
f 3/9/1 2/15/1 14/16/1 15/10/1
f 10/17/1 9/18/1 21/19/1 22/20/1
f 11/21/1 10/17/1 22/20/1 23/22/1
f 2/15/1 1/11/1 13/14/1 14/16/1
f 8/23/1 7/7/1 19/8/1 20/24/1
f 12/12/1 11/21/1 23/22/1 24/13/1
f 9/18/1 8/23/1 20/24/1 21/19/1
f 15/25/2 77/26/2 89/27/2 27/28/2
f 16/3/1 15/10/1 27/29/1 28/30/1
f 23/22/1 22/20/1 34/31/1 35/32/1
f 24/13/1 23/22/1 35/32/1 36/33/1
f 14/16/1 13/14/1 25/34/1 26/35/1
f 21/19/1 20/24/1 32/36/1 33/37/1
f 20/24/1 19/8/1 31/38/1 32/36/1
f 22/20/1 21/19/1 33/37/1 34/31/1
f 13/14/1 24/13/1 36/33/1 25/34/1
f 19/8/1 18/6/1 30/39/1 31/38/1
f 18/6/1 17/4/1 29/40/1 30/39/1
f 17/4/1 16/3/1 28/30/1 29/40/1
f 27/29/1 26/35/1 38/41/1 39/42/1
f 28/30/1 27/29/1 39/42/1 40/43/1
f 35/32/1 34/31/1 46/44/1 47/45/1
f 36/33/1 35/32/1 47/45/1 48/46/1
f 26/35/1 25/34/1 37/47/1 38/41/1
f 33/37/1 32/36/1 44/48/1 45/49/1
f 32/36/1 31/38/1 43/50/1 44/48/1
f 34/31/1 33/37/1 45/49/1 46/44/1
f 25/34/1 36/33/1 48/46/1 37/47/1
f 31/38/1 30/39/1 42/51/1 43/50/1
f 30/39/1 29/40/1 41/52/1 42/51/1
f 29/40/1 28/30/1 40/43/1 41/52/1
f 41/52/1 40/43/1 52/53/1 53/54/1
f 39/42/1 38/41/1 50/55/1 51/56/1
f 40/43/1 39/42/1 51/56/1 52/53/1
f 47/45/1 46/44/1 58/57/1 59/58/1
f 48/46/1 47/45/1 59/58/1 60/59/1
f 38/41/1 37/47/1 49/60/1 50/55/1
f 45/49/1 44/48/1 56/61/1 57/62/1
f 44/48/1 43/50/1 55/63/1 56/61/1
f 46/44/1 45/49/1 57/62/1 58/57/1
f 37/47/1 48/46/1 60/59/1 49/60/1
f 43/50/1 42/51/1 54/64/1 55/63/1
f 42/51/1 41/52/1 53/54/1 54/64/1
f 49/60/1 60/59/1 55/63/1 54/64/1
f 53/54/1 50/55/1 49/60/1 54/64/1
f 51/56/1 50/55/1 53/54/1 52/53/1
f 55/63/1 60/59/1 59/58/1 56/61/1
f 58/57/1 57/62/1 56/61/1 59/58/1
f 65/65/3 75/66/3 78/67/3 64/68/3
f 66/69/3 76/70/3 75/66/3 65/65/3
f 67/71/3 73/72/3 76/70/3 66/69/3
f 64/68/3 78/67/3 77/73/3 63/74/3
f 61/75/3 79/76/3 81/77/3 72/78/3
f 63/74/3 77/73/3 80/79/3 62/80/3
f 70/81/3 84/82/3 83/83/3 69/84/3
f 71/85/3 82/86/3 84/82/3 70/81/3
f 62/80/3 80/79/3 79/76/3 61/75/3
f 68/87/3 74/88/3 73/72/3 67/71/3
f 72/78/3 81/77/3 82/86/3 71/85/3
f 69/84/3 83/83/3 74/88/3 68/87/3
f 15/25/4 14/89/4 80/90/4 77/26/4
f 78/67/3 90/91/3 89/92/3 77/73/3
f 82/86/3 94/93/3 96/94/3 84/82/3
f 81/77/3 93/95/3 94/93/3 82/86/3
f 80/79/3 92/96/3 91/97/3 79/76/3
f 83/83/3 95/98/3 86/99/3 74/88/3
f 74/88/3 86/99/3 85/100/3 73/72/3
f 84/82/3 96/94/3 95/98/3 83/83/3
f 79/76/3 91/97/3 93/95/3 81/77/3
f 73/72/3 85/100/3 88/101/3 76/70/3
f 76/70/3 88/101/3 87/102/3 75/66/3
f 75/66/3 87/102/3 90/91/3 78/67/3
f 89/92/3 101/103/3 104/104/3 92/96/3
f 90/91/3 102/105/3 101/103/3 89/92/3
f 94/93/3 106/106/3 108/107/3 96/94/3
f 93/95/3 105/108/3 106/106/3 94/93/3
f 92/96/3 104/104/3 103/109/3 91/97/3
f 95/98/3 107/110/3 98/111/3 86/99/3
f 86/99/3 98/111/3 97/112/3 85/100/3
f 96/94/3 108/107/3 107/110/3 95/98/3
f 91/97/3 103/109/3 105/108/3 93/95/3
f 85/100/3 97/112/3 100/113/3 88/101/3
f 88/101/3 100/113/3 99/114/3 87/102/3
f 87/102/3 99/114/3 102/105/3 90/91/3
f 99/114/3 111/115/3 114/116/3 102/105/3
f 101/103/3 113/117/3 116/118/3 104/104/3
f 102/105/3 114/116/3 113/117/3 101/103/3
f 106/106/3 118/119/3 120/120/3 108/107/3
f 105/108/3 117/121/3 118/119/3 106/106/3
f 104/104/3 116/118/3 115/122/3 103/109/3
f 107/110/3 119/123/3 110/124/3 98/111/3
f 98/111/3 110/124/3 109/125/3 97/112/3
f 108/107/3 120/120/3 119/123/3 107/110/3
f 103/109/3 115/122/3 117/121/3 105/108/3
f 97/112/3 109/125/3 112/126/3 100/113/3
f 100/113/3 112/126/3 111/115/3 99/114/3
f 115/122/3 112/126/3 109/125/3 117/121/3
f 111/115/3 112/126/3 115/122/3 116/118/3
f 113/117/3 114/116/3 111/115/3 116/118/3
f 109/125/3 110/124/3 118/119/3 117/121/3
f 120/120/3 118/119/3 110/124/3 119/123/3
f 10/127/5 70/128/5 69/129/5 9/130/5
f 7/131/6 67/132/6 66/133/6 6/134/6
f 4/135/7 64/136/7 63/137/7 3/138/7
f 5/139/8 65/140/8 64/136/8 4/135/8
f 12/141/9 72/142/9 71/143/9 11/144/9
f 6/134/10 66/133/10 65/140/10 5/139/10
f 11/144/11 71/143/11 70/128/11 10/127/11
f 3/138/12 63/137/12 62/145/12 2/146/12
f 8/147/13 68/148/13 67/149/13 7/150/13
f 9/130/4 69/129/4 68/148/4 8/147/4
f 2/146/14 62/145/14 61/151/14 1/152/14
f 1/152/15 61/151/15 72/142/15 12/141/15
f 27/28/12 89/27/12 92/153/12 26/154/12
f 26/155/16 92/156/16 80/90/16 14/89/16
