# Blender 4.2.2 LTS
# www.blender.org
o chip.002
v -1.392145 -0.000000 -4.196244
v 1.392145 -0.000000 -4.196244
v 2.937982 -0.000000 -3.303756
v 4.330127 -0.000000 -0.892489
v 4.330127 -0.000000 0.892489
v 2.937982 -0.000000 3.303756
v 1.392145 -0.000000 4.196245
v -1.392145 -0.000000 4.196245
v -2.937982 -0.000000 3.303756
v -4.330127 -0.000000 0.892489
v -4.330127 -0.000000 -0.892489
v -2.937982 -0.000000 -3.303756
v -1.213768 -0.000000 -3.658576
v 1.213768 -0.000000 -3.658576
v 2.561536 -0.000000 -2.880443
v 3.775304 -0.000000 -0.778134
v 3.775304 -0.000000 0.778134
v 2.561536 -0.000000 2.880443
v 1.213768 -0.000000 3.658576
v -1.213768 -0.000000 3.658576
v -2.561536 -0.000000 2.880443
v -3.775304 -0.000000 0.778134
v -3.775304 -0.000000 -0.778134
v -2.561536 -0.000000 -2.880443
v -0.873851 -0.000000 -2.633987
v 0.873851 -0.000000 -2.633987
v 1.844174 -0.000000 -2.073771
v 2.718025 -0.000000 -0.560216
v 2.718025 -0.000000 0.560216
v 1.844174 -0.000000 2.073771
v 0.873851 -0.000000 2.633987
v -0.873851 -0.000000 2.633987
v -1.844174 -0.000000 2.073771
v -2.718025 -0.000000 0.560216
v -2.718025 -0.000000 -0.560216
v -1.844174 -0.000000 -2.073771
v -0.588844 -0.000000 -1.774909
v 1.242695 -0.000000 -1.397408
v 1.831538 -0.000000 -0.377501
v 1.831538 -0.000000 0.377501
v 1.242695 -0.000000 1.397408
v 0.588843 -0.000000 1.774909
v -0.588844 -0.000000 1.774909
v -1.242695 -0.000000 1.397408
v -1.831538 -0.000000 0.377501
v -1.831538 -0.000000 -0.377501
v -1.242695 -0.000000 -1.397408
v -0.345018 -0.000000 -1.039962
v 0.345018 -0.000000 -1.039962
v 0.728125 -0.000000 -0.818775
v 1.073143 -0.000000 -0.221187
v 1.073143 -0.000000 0.221187
v 0.728125 -0.000000 0.818775
v 0.345018 -0.000000 1.039962
v -0.345018 -0.000000 1.039962
v -0.728125 -0.000000 0.818775
v -1.073143 -0.000000 0.221187
v -1.073143 -0.000000 -0.221187
v -0.728125 -0.000000 -0.818775
v -1.392145 -0.352810 -4.196244
v 1.392145 -0.352810 -4.196244
v 2.937982 -0.352810 -3.303756
v 4.330127 -0.352810 -0.892489
v 4.330127 -0.352810 0.892489
v 2.937982 -0.352810 3.303756
v 1.392145 -0.352810 4.196245
v -1.392145 -0.352810 4.196245
v -2.937982 -0.352810 3.303756
v -4.330127 -0.352810 0.892489
v -4.330127 -0.352810 -0.892489
v -2.937982 -0.352810 -3.303756
v 1.213768 -0.352810 3.658576
v -1.213768 -0.352810 3.658576
v 3.775304 -0.352810 0.778134
v 2.561536 -0.352810 2.880443
v 2.561536 -0.352810 -2.880443
v 3.775304 -0.352810 -0.778134
v -1.213768 -0.352810 -3.658576
v 1.213768 -0.352810 -3.658576
v -2.561536 -0.352810 -2.880443
v -3.775304 -0.352810 -0.778134
v -2.561536 -0.352810 2.880443
v -3.775304 -0.352810 0.778134
v 0.873851 -0.352810 2.633987
v -0.873851 -0.352810 2.633987
v 2.718025 -0.352810 0.560216
v 1.844174 -0.352810 2.073771
v 1.844174 -0.352810 -2.073771
v 2.718025 -0.352810 -0.560216
v -0.873851 -0.352810 -2.633987
v 0.873851 -0.352810 -2.633987
v -1.844174 -0.352810 -2.073771
v -2.718025 -0.352810 -0.560216
v -1.844174 -0.352810 2.073771
v -2.718025 -0.352810 0.560216
v 0.588843 -0.352810 1.774909
v -0.588844 -0.352810 1.774909
v 1.831538 -0.352810 0.377501
v 1.242695 -0.352810 1.397408
v 1.242695 -0.352810 -1.397408
v 1.831538 -0.352810 -0.377501
v -0.588844 -0.352810 -1.774909
v -1.242695 -0.352810 -1.397408
v -1.831538 -0.352810 -0.377501
v -1.242695 -0.352810 1.397408
v -1.831538 -0.352810 0.377501
v 0.345018 -0.352810 1.039962
v -0.345018 -0.352810 1.039962
v 1.073143 -0.352810 0.221187
v 0.728125 -0.352810 0.818775
v 0.728125 -0.352810 -0.818775
v 1.073143 -0.352810 -0.221187
v -0.345018 -0.352810 -1.039962
v 0.345018 -0.352810 -1.039962
v -0.728125 -0.352810 -0.818775
v -1.073143 -0.352810 -0.221187
v -0.728125 -0.352810 0.818775
v -1.073143 -0.352810 0.221187
vn -0.0000 1.0000 -0.0000
vn 0.9491 -0.0000 -0.3149
vn -0.7473 -0.0000 -0.6645
vn -0.0000 -0.0000 -1.0000
vn -0.0000 -1.0000 -0.0000
vn 0.5000 -0.0000 -0.8660
vn -0.5000 -0.0000 0.8660
vn -0.0000 -0.0000 1.0000
vn -0.8660 -0.0000 0.5000
vn 0.5000 -0.0000 0.8660
vn 0.8660 -0.0000 -0.5000
vn 1.0000 -0.0000 -0.0000
vn -0.8660 -0.0000 -0.5000
vn 0.8660 -0.0000 0.5000
vn -1.0000 -0.0000 -0.0000
vn -0.5000 -0.0000 -0.8660
vt 0.013105 0.491895
vt 0.013105 0.426798
vt 0.033339 0.430968
vt 0.033339 0.487725
vt 0.063876 0.579834
vt 0.077605 0.564395
vt 0.120253 0.612382
vt 0.126758 0.592774
vt 0.063876 0.338859
vt 0.077605 0.354297
vt 0.221795 0.306310
vt 0.278171 0.338859
vt 0.264443 0.354297
vt 0.215290 0.325919
vt 0.120253 0.306310
vt 0.126758 0.325919
vt 0.328943 0.491895
vt 0.278171 0.579834
vt 0.264443 0.564395
vt 0.308708 0.487725
vt 0.328943 0.426798
vt 0.308708 0.430968
vt 0.221795 0.612382
vt 0.215290 0.592774
vt 0.139155 0.363286
vt 0.103767 0.383716
vt 0.071898 0.438915
vt 0.270150 0.479777
vt 0.270150 0.438915
vt 0.238281 0.383716
vt 0.202893 0.363286
vt 0.202893 0.555407
vt 0.238281 0.534976
vt 0.139155 0.555407
vt 0.103767 0.534976
vt 0.071898 0.479777
vt 0.041345 0.612541
vt 0.074355 0.612541
vt 0.074355 0.625408
vt 0.041345 0.625408
vt 0.125703 0.408383
vt 0.104228 0.445579
vt 0.237820 0.473114
vt 0.237820 0.445579
vt 0.216345 0.408383
vt 0.013105 0.625408
vt 0.013105 0.612541
vt 0.192499 0.524077
vt 0.216345 0.510310
vt 0.149549 0.524077
vt 0.192499 0.394616
vt 0.125703 0.510310
vt 0.104228 0.473114
vt 0.131887 0.451280
vt 0.131887 0.467413
vt 0.178955 0.625408
vt 0.178955 0.612541
vt 0.211964 0.612541
vt 0.211964 0.625408
vt 0.144469 0.429486
vt 0.210161 0.467413
vt 0.210161 0.451280
vt 0.197578 0.429486
vt 0.281503 0.612541
vt 0.281503 0.625408
vt 0.256338 0.625408
vt 0.256338 0.612541
vt 0.183607 0.497274
vt 0.197578 0.489207
vt 0.158441 0.497274
vt 0.183607 0.421419
vt 0.144469 0.489207
vt 0.158441 0.421419
vt 0.013105 0.120567
vt 0.033339 0.124737
vt 0.033339 0.181494
vt 0.013105 0.185664
vt 0.063876 0.032628
vt 0.077605 0.048066
vt 0.120253 0.000079
vt 0.126758 0.019688
vt 0.077605 0.258165
vt 0.063876 0.273603
vt 0.221795 0.306152
vt 0.215290 0.286543
vt 0.264443 0.258165
vt 0.278171 0.273603
vt 0.126758 0.286543
vt 0.120253 0.306152
vt 0.328943 0.120567
vt 0.308708 0.124737
vt 0.264443 0.048066
vt 0.278171 0.032628
vt 0.328943 0.185664
vt 0.308708 0.181494
vt 0.221795 0.000079
vt 0.215290 0.019688
vt 0.103767 0.228745
vt 0.139155 0.249176
vt 0.071898 0.173547
vt 0.270150 0.173546
vt 0.270150 0.132684
vt 0.238281 0.228745
vt 0.202893 0.249176
vt 0.238281 0.077486
vt 0.202893 0.057055
vt 0.139155 0.057055
vt 0.103767 0.077486
vt 0.071898 0.132685
vt 0.240204 0.612541
vt 0.240204 0.625408
vt 0.104228 0.166883
vt 0.125703 0.204079
vt 0.237820 0.166883
vt 0.237820 0.139348
vt 0.216345 0.204079
vt 0.138093 0.625408
vt 0.138093 0.612541
vt 0.216345 0.102152
vt 0.192499 0.088385
vt 0.149549 0.088385
vt 0.192499 0.217846
vt 0.125703 0.102152
vt 0.104228 0.139348
vt 0.131887 0.145049
vt 0.131887 0.161182
vt 0.144469 0.182976
vt 0.210161 0.161182
vt 0.210161 0.145049
vt 0.197578 0.182976
vt 0.197578 0.123255
vt 0.183607 0.115188
vt 0.158441 0.115188
vt 0.183607 0.191043
vt 0.144469 0.123255
vt 0.158441 0.191043
vt 0.012946 0.268262
vt 0.000079 0.268262
vt 0.000079 0.166720
vt 0.012946 0.166720
vt 0.012946 0.999921
vt 0.000079 0.999921
vt 0.000079 0.934823
vt 0.012946 0.934823
vt 0.012946 0.768183
vt 0.000079 0.768183
vt 0.000079 0.666640
vt 0.012946 0.666640
vt 0.012946 0.833280
vt 0.000079 0.833280
vt 0.012946 0.434902
vt 0.000079 0.434902
vt 0.000079 0.333360
vt 0.012946 0.333360
vt 0.000079 0.601542
vt 0.012946 0.601542
vt 0.012946 0.101622
vt 0.000079 0.101622
vt 0.000079 0.000079
vt 0.012946 0.000079
vt 0.000079 0.500000
vt 0.012946 0.500000
s 0
f 5/1/1 4/2/1 16/3/1 17/4/1
f 6/5/1 5/1/1 17/4/1 18/6/1
f 7/7/1 6/5/1 18/6/1 19/8/1
f 4/2/1 3/9/1 15/10/1 16/3/1
f 1/11/1 12/12/1 24/13/1 13/14/1
f 3/9/1 2/15/1 14/16/1 15/10/1
f 10/17/1 9/18/1 21/19/1 22/20/1
f 11/21/1 10/17/1 22/20/1 23/22/1
f 2/15/1 1/11/1 13/14/1 14/16/1
f 8/23/1 7/7/1 19/8/1 20/24/1
f 12/12/1 11/21/1 23/22/1 24/13/1
f 9/18/1 8/23/1 20/24/1 21/19/1
f 15/10/1 14/16/1 26/25/1 27/26/1
f 16/3/1 15/10/1 27/26/1 28/27/1
f 23/22/1 22/20/1 34/28/1 35/29/1
f 24/13/1 23/22/1 35/29/1 36/30/1
f 14/16/1 13/14/1 25/31/1 26/25/1
f 21/19/1 20/24/1 32/32/1 33/33/1
f 20/24/1 19/8/1 31/34/1 32/32/1
f 22/20/1 21/19/1 33/33/1 34/28/1
f 13/14/1 24/13/1 36/30/1 25/31/1
f 19/8/1 18/6/1 30/35/1 31/34/1
f 18/6/1 17/4/1 29/36/1 30/35/1
f 17/4/1 16/3/1 28/27/1 29/36/1
f 102/37/2 90/38/2 25/39/2 37/40/2
f 28/27/1 27/26/1 38/41/1 39/42/1
f 35/29/1 34/28/1 45/43/1 46/44/1
f 36/30/1 35/29/1 46/44/1 47/45/1
f 102/37/2 37/40/2 48/46/2 113/47/2
f 33/33/1 32/32/1 43/48/1 44/49/1
f 32/32/1 31/34/1 42/50/1 43/48/1
f 34/28/1 33/33/1 44/49/1 45/43/1
f 25/31/1 36/30/1 47/45/1 37/51/1
f 31/34/1 30/35/1 41/52/1 42/50/1
f 30/35/1 29/36/1 40/53/1 41/52/1
f 29/36/1 28/27/1 39/42/1 40/53/1
f 40/53/1 39/42/1 51/54/1 52/55/1
f 27/56/3 88/57/3 100/58/3 38/59/3
f 39/42/1 38/41/1 50/60/1 51/54/1
f 46/44/1 45/43/1 57/61/1 58/62/1
f 47/45/1 46/44/1 58/62/1 59/63/1
f 113/64/4 48/65/4 49/66/4 114/67/4
f 44/49/1 43/48/1 55/68/1 56/69/1
f 43/48/1 42/50/1 54/70/1 55/68/1
f 45/43/1 44/49/1 56/69/1 57/61/1
f 37/51/1 47/45/1 59/63/1 48/71/1
f 42/50/1 41/52/1 53/72/1 54/70/1
f 41/52/1 40/53/1 52/55/1 53/72/1
f 48/71/1 59/63/1 54/70/1 53/72/1
f 52/55/1 49/73/1 48/71/1 53/72/1
f 50/60/1 49/73/1 52/55/1 51/54/1
f 54/70/1 59/63/1 58/62/1 55/68/1
f 57/61/1 56/69/1 55/68/1 58/62/1
f 64/74/5 74/75/5 77/76/5 63/77/5
f 65/78/5 75/79/5 74/75/5 64/74/5
f 66/80/5 72/81/5 75/79/5 65/78/5
f 63/77/5 77/76/5 76/82/5 62/83/5
f 60/84/5 78/85/5 80/86/5 71/87/5
f 62/83/5 76/82/5 79/88/5 61/89/5
f 69/90/5 83/91/5 82/92/5 68/93/5
f 70/94/5 81/95/5 83/91/5 69/90/5
f 61/89/5 79/88/5 78/85/5 60/84/5
f 67/96/5 73/97/5 72/81/5 66/80/5
f 71/87/5 80/86/5 81/95/5 70/94/5
f 68/93/5 82/92/5 73/97/5 67/96/5
f 76/82/5 88/98/5 91/99/5 79/88/5
f 77/76/5 89/100/5 88/98/5 76/82/5
f 81/95/5 93/101/5 95/102/5 83/91/5
f 80/86/5 92/103/5 93/101/5 81/95/5
f 79/88/5 91/99/5 90/104/5 78/85/5
f 82/92/5 94/105/5 85/106/5 73/97/5
f 73/97/5 85/106/5 84/107/5 72/81/5
f 83/91/5 95/102/5 94/105/5 82/92/5
f 78/85/5 90/104/5 92/103/5 80/86/5
f 72/81/5 84/107/5 87/108/5 75/79/5
f 75/79/5 87/108/5 86/109/5 74/75/5
f 74/75/5 86/109/5 89/100/5 77/76/5
f 111/110/6 114/67/6 49/66/6 50/111/6
f 89/100/5 101/112/5 100/113/5 88/98/5
f 93/101/5 104/114/5 106/115/5 95/102/5
f 92/103/5 103/116/5 104/114/5 93/101/5
f 27/56/7 26/117/7 91/118/7 88/57/7
f 94/105/5 105/119/5 97/120/5 85/106/5
f 85/106/5 97/120/5 96/121/5 84/107/5
f 95/102/5 106/115/5 105/119/5 94/105/5
f 90/104/5 102/122/5 103/116/5 92/103/5
f 84/107/5 96/121/5 99/123/5 87/108/5
f 87/108/5 99/123/5 98/124/5 86/109/5
f 86/109/5 98/124/5 101/112/5 89/100/5
f 98/124/5 109/125/5 112/126/5 101/112/5
f 111/110/3 50/111/3 38/59/3 100/58/3
f 101/112/5 112/126/5 111/127/5 100/113/5
f 104/114/5 116/128/5 118/129/5 106/115/5
f 103/116/5 115/130/5 116/128/5 104/114/5
f 26/117/8 25/39/8 90/38/8 91/118/8
f 105/119/5 117/131/5 108/132/5 97/120/5
f 97/120/5 108/132/5 107/133/5 96/121/5
f 106/115/5 118/129/5 117/131/5 105/119/5
f 102/122/5 113/134/5 115/130/5 103/116/5
f 96/121/5 107/133/5 110/135/5 99/123/5
f 99/123/5 110/135/5 109/125/5 98/124/5
f 113/134/5 110/135/5 107/133/5 115/130/5
f 109/125/5 110/135/5 113/134/5 114/136/5
f 111/127/5 112/126/5 109/125/5 114/136/5
f 107/133/5 108/132/5 116/128/5 115/130/5
f 118/129/5 116/128/5 108/132/5 117/131/5
f 10/137/9 69/138/9 68/139/9 9/140/9
f 7/141/10 66/142/10 65/143/10 6/144/10
f 4/145/11 63/146/11 62/147/11 3/148/11
f 5/149/12 64/150/12 63/146/12 4/145/12
f 12/151/13 71/152/13 70/153/13 11/154/13
f 6/144/14 65/143/14 64/150/14 5/149/14
f 11/154/15 70/153/15 69/138/15 10/137/15
f 3/148/6 62/147/6 61/155/6 2/156/6
f 8/157/8 67/158/8 66/159/8 7/160/8
f 9/140/7 68/139/7 67/158/7 8/157/7
f 2/156/4 61/155/4 60/161/4 1/162/4
f 1/162/16 60/161/16 71/152/16 12/151/16
